<?xml version="1.0" standalone="no"?>
<!DOCTYPE svg PUBLIC "-//W3C//DTD SVG 20010904//EN"
 "http://www.w3.org/TR/2001/REC-SVG-20010904/DTD/svg10.dtd">
<svg version="1.0" xmlns="http://www.w3.org/2000/svg"
 width="512.000000pt" height="512.000000pt" viewBox="0 0 512.000000 512.000000"
 preserveAspectRatio="xMidYMid meet">

<g transform="translate(0.000000,512.000000) scale(0.100000,-0.100000)"
fill="#000000" stroke="none">
<path d="M4295 5095 c-25 -24 -25 -25 -25 -220 l0 -197 -192 -271 -193 -272
-3 -261 -3 -262 -39 -6 c-66 -10 -70 -25 -70 -232 0 -168 1 -183 21 -208 15
-19 30 -26 55 -26 l34 0 0 -1335 0 -1335 -30 0 c-19 0 -40 -9 -55 -25 -25 -24
-25 -26 -25 -210 0 -184 0 -186 25 -210 l24 -25 524 0 c502 0 526 1 548 19 23
19 24 23 27 210 l3 191 -25 25 c-16 16 -36 25 -55 25 l-31 0 -2 1086 -3 1086
-28 24 c-15 13 -37 24 -47 24 -10 0 -32 -11 -47 -24 l-28 -24 -3 -1086 -2
-1086 -308 2 -307 3 0 1330 0 1330 307 3 306 2 4 -101 c3 -96 4 -102 31 -125
15 -13 37 -24 47 -24 10 0 32 11 47 24 27 23 28 29 31 125 l4 101 29 0 c18 0
39 10 54 25 25 24 25 27 25 199 0 107 -4 185 -11 199 -12 26 -47 47 -79 47
-19 0 -20 9 -20 245 0 188 -3 253 -14 278 -8 18 -95 147 -195 287 l-180 255
-1 198 c0 197 0 198 -25 222 -13 14 -36 25 -50 25 -14 0 -37 -11 -50 -25z
m204 -795 l151 -214 0 -238 0 -238 -25 0 -25 0 0 103 c0 56 -3 113 -7 126 -9
36 -210 191 -247 191 -21 0 -56 -20 -124 -72 -135 -103 -132 -99 -132 -234 l0
-114 -30 0 -30 0 0 233 0 232 157 222 c86 123 158 222 159 220 1 -1 70 -99
153 -217z m-91 -489 l42 -33 0 -84 0 -84 -105 0 -105 0 0 84 0 84 51 41 c32
25 56 38 63 33 6 -5 30 -23 54 -41z m360 -438 l3 -83 -426 0 -425 0 0 85 0 85
423 -2 422 -3 3 -82z m2 -3138 l0 -85 -425 0 -425 0 0 85 0 85 425 0 425 0 0
-85z"/>
<path d="M1760 5091 c-297 -95 -470 -390 -406 -692 45 -210 239 -407 448 -454
l53 -11 3 -65 3 -65 -148 -68 c-194 -88 -544 -272 -711 -374 -264 -161 -452
-313 -523 -424 -114 -178 -116 -415 -4 -638 18 -36 45 -83 60 -104 l26 -39
-180 -182 -181 -182 2 -877 3 -878 24 -19 c23 -19 64 -19 1707 -19 1663 0
1684 0 1704 20 11 11 22 30 25 42 3 13 4 409 3 880 l-3 858 -178 178 -179 179
40 62 c79 122 132 293 132 431 0 124 -60 265 -156 369 -171 184 -616 460
-1123 695 l-191 89 0 67 0 67 43 7 c80 13 192 65 262 123 81 67 157 185 188
291 18 59 11 94 -22 111 -33 18 -59 13 -138 -31 -66 -36 -86 -42 -152 -46
-231 -13 -402 158 -389 389 4 66 10 86 46 152 46 83 51 114 25 145 -26 30 -52
33 -113 13z m-104 -238 c-13 -33 -7 -188 10 -242 49 -166 193 -308 362 -357
37 -11 84 -15 154 -12 l100 3 -51 -47 c-172 -158 -439 -151 -607 16 -166 167
-174 431 -18 605 48 54 60 62 50 34z m474 -1273 c430 -203 793 -415 993 -580
174 -143 226 -265 194 -451 -17 -92 -54 -185 -108 -268 l-34 -51 -712 0 c-468
0 -721 -4 -739 -10 -58 -22 -71 -80 -28 -121 l26 -24 728 -3 729 -3 171 -165
170 -166 -2 -792 -3 -791 -522 -3 -523 -2 0 426 0 425 -149 157 c-257 271
-354 362 -386 362 -23 0 -54 -26 -163 -132 -74 -73 -188 -190 -253 -260 l-119
-127 0 -426 0 -425 -525 0 -525 0 0 793 0 792 167 167 168 167 367 3 c363 3
368 3 389 25 29 29 29 77 0 106 -21 22 -26 22 -384 25 l-363 3 -33 50 c-57 87
-91 173 -108 270 -19 110 -10 179 34 268 66 135 301 311 733 549 132 73 591
299 612 301 3 1 92 -40 198 -89z m-3 -2442 l193 -193 0 -397 0 -398 -385 0
-385 0 0 397 0 397 188 192 c103 105 189 192 192 193 3 0 91 -86 197 -191z"/>
<path d="M745 1660 c-193 -149 -175 -109 -175 -386 l0 -235 25 -24 24 -25 286
0 286 0 24 25 25 24 0 235 c0 277 18 236 -175 386 -99 76 -137 100 -160 100
-23 0 -62 -25 -160 -100z m263 -149 l82 -64 0 -154 0 -153 -185 0 -185 0 0
154 0 155 92 70 c50 39 96 67 102 64 6 -4 48 -36 94 -72z"/>
<path d="M2793 1650 c-78 -60 -147 -119 -153 -129 -6 -12 -10 -110 -10 -251
l0 -231 25 -24 24 -25 286 0 286 0 24 25 25 24 0 235 c0 277 18 236 -175 386
-98 75 -137 100 -160 100 -23 0 -63 -26 -172 -110z m275 -140 l82 -62 0 -154
0 -154 -185 0 -185 0 0 154 0 155 92 70 c55 42 96 67 102 63 6 -5 48 -37 94
-72z"/>
</g>
</svg>
